PathFileType	4	(X/Y/Z)	markers_results_mono.trc
DataRate	CameraRate	NumFrames	NumMarkers	Units	OrigDataRate	OrigDataStartFrame	OrigNumFrames
12.500000	12.500000	10	22	m	12.500000	2639	3015
Frame#	Time	Nose			Neck			LShoulder			RShoulder			LElbow			RElbow			LWrist			RWrist			LHip			RHip			LKnee			RKnee			LAnkle			RAnkle			LEye			REye			LThumb			LIndex			LPinky			RThumb			RIndex			RPinky
		X1	Y1	Z1	X2	Y2	Z2	X3	Y3	Z3	X4	Y4	Z4	X5	Y5	Z5	X6	Y6	Z6	X7	Y7	Z7	X8	Y8	Z8	X9	Y9	Z9	X10	Y10	Z10	X11	Y11	Z11	X12	Y12	Z12	X13	Y13	Z13	X14	Y14	Z14	X15	Y15	Z15	X16	Y16	Z16	X17	Y17	Z17	X18	Y18	Z18	X19	Y19	Z19	X20	Y20	Z20	X21	Y21	Z21	X22	Y22	Z22

2639	211.040000	-0.022861	-0.246977	0.136042	-0.004210	-0.284030	0.137581	0.009140	-0.255192	0.139449	-0.017560	-0.312868	0.135713	-0.009053	-0.178755	0.074744	-0.040947	-0.202276	0.049613	0.031874	-0.153690	0.069919	-0.001729	-0.166910	0.034746	-0.002404	-0.135123	0.048836	-0.014533	-0.131349	0.038428	-0.008538	-0.100763	-0.006634	-0.015688	-0.105941	-0.024532	-0.141659	-0.046698	-0.137947	-0.213852	-0.137105	-0.087671	-0.022861	-0.246977	0.136042	-0.022861	-0.246977	0.136042	0.031874	-0.153690	0.069919	0.031874	-0.153690	0.069919	0.031874	-0.153690	0.069919	-0.001729	-0.166910	0.034746	-0.001729	-0.166910	0.034746	-0.001729	-0.166910	0.034746
2640	211.120000	-0.033314	-0.201037	0.108719	-0.021512	-0.256829	0.129799	-0.011041	-0.234376	0.121955	-0.031982	-0.279281	0.137643	-0.017822	-0.176048	0.051806	-0.051050	-0.167298	0.053371	0.025521	-0.168375	0.060677	-0.011857	-0.134979	0.041959	-0.026025	-0.093631	0.034554	-0.038030	-0.097174	0.036643	-0.018230	-0.046565	-0.018443	-0.019842	-0.071231	-0.022431	-0.141913	0.014123	-0.150899	-0.204775	0.015937	-0.142596	-0.033314	-0.201037	0.108719	-0.033314	-0.201037	0.108719	0.025521	-0.168375	0.060677	0.025521	-0.168375	0.060677	0.025521	-0.168375	0.060677	-0.011857	-0.134979	0.041959	-0.011857	-0.134979	0.041959	-0.011857	-0.134979	0.041959
2641	211.200000	-0.039059	-0.183475	0.101751	-0.029377	-0.245689	0.129232	-0.020225	-0.225209	0.118482	-0.038529	-0.266169	0.139982	-0.027790	-0.177300	0.037605	-0.056039	-0.152675	0.055589	0.016148	-0.171588	0.048962	-0.018731	-0.124461	0.043808	-0.036848	-0.081763	0.030509	-0.048232	-0.087271	0.036115	-0.026730	-0.019924	-0.020478	-0.025240	-0.054472	-0.019397	-0.149264	0.051363	-0.156741	-0.204479	0.079458	-0.161734	-0.039059	-0.183475	0.101751	-0.039059	-0.183475	0.101751	0.016148	-0.171588	0.048962	0.016148	-0.171588	0.048962	0.016148	-0.171588	0.048962	-0.018731	-0.124461	0.043808	-0.018731	-0.124461	0.043808	-0.018731	-0.124461	0.043808
2642	211.280000	-0.038974	-0.193533	0.110777	-0.027357	-0.250428	0.133222	-0.017760	-0.228050	0.125287	-0.036953	-0.272807	0.141157	-0.032392	-0.178941	0.036053	-0.055446	-0.158810	0.055375	0.009131	-0.165292	0.041097	-0.020054	-0.133243	0.041144	-0.033578	-0.093777	0.035008	-0.044759	-0.097204	0.036857	-0.028710	-0.025876	-0.015373	-0.027969	-0.058440	-0.017588	-0.154883	0.051274	-0.154505	-0.207909	0.051603	-0.148532	-0.038974	-0.193533	0.110777	-0.038974	-0.193533	0.110777	0.009131	-0.165292	0.041097	0.009131	-0.165292	0.041097	0.009131	-0.165292	0.041097	-0.020054	-0.133243	0.041144	-0.020054	-0.133243	0.041144	-0.020054	-0.133243	0.041144
2643	211.360000	-0.037979	-0.201745	0.115573	-0.025086	-0.254639	0.134942	-0.014977	-0.231256	0.128813	-0.035194	-0.278023	0.141071	-0.031879	-0.178312	0.037390	-0.054320	-0.163748	0.054613	0.006317	-0.161722	0.038326	-0.019215	-0.138921	0.039173	-0.029877	-0.100920	0.037965	-0.041371	-0.102746	0.037377	-0.027614	-0.033706	-0.012575	-0.027966	-0.062827	-0.017718	-0.154800	0.043125	-0.152053	-0.207827	0.028664	-0.140169	-0.037979	-0.201745	0.115573	-0.037979	-0.201745	0.115573	0.006317	-0.161722	0.038326	0.006317	-0.161722	0.038326	0.006317	-0.161722	0.038326	-0.019215	-0.138921	0.039173	-0.019215	-0.138921	0.039173	-0.019215	-0.138921	0.039173
2644	211.440000	-0.038374	-0.200988	0.112503	-0.026076	-0.255232	0.133733	-0.016052	-0.232657	0.126757	-0.036100	-0.277806	0.140709	-0.030775	-0.179040	0.036575	-0.054901	-0.162929	0.054696	0.006103	-0.165187	0.038394	-0.019255	-0.138220	0.039395	-0.031093	-0.099331	0.036837	-0.042867	-0.101541	0.037270	-0.027365	-0.032566	-0.013920	-0.027695	-0.062411	-0.018706	-0.153269	0.042218	-0.152356	-0.206334	0.038822	-0.145582	-0.038374	-0.200988	0.112503	-0.038374	-0.200988	0.112503	0.006103	-0.165187	0.038394	0.006103	-0.165187	0.038394	0.006103	-0.165187	0.038394	-0.019255	-0.138220	0.039395	-0.019255	-0.138220	0.039395	-0.019255	-0.138220	0.039395
2645	211.520000	-0.038885	-0.206656	0.110081	-0.027332	-0.262798	0.132750	-0.017370	-0.240610	0.124775	-0.037294	-0.284986	0.140725	-0.031060	-0.187801	0.035531	-0.055912	-0.169716	0.055424	0.006290	-0.175375	0.038667	-0.020243	-0.145277	0.039954	-0.032830	-0.105314	0.035210	-0.044763	-0.108735	0.037060	-0.027672	-0.037445	-0.015395	-0.028368	-0.069673	-0.019472	-0.154280	0.036853	-0.152348	-0.208530	0.041687	-0.149454	-0.038885	-0.206656	0.110081	-0.038885	-0.206656	0.110081	0.006290	-0.175375	0.038667	0.006290	-0.175375	0.038667	0.006290	-0.175375	0.038667	-0.020243	-0.145277	0.039954	-0.020243	-0.145277	0.039954	-0.020243	-0.145277	0.039954
2646	211.600000	-0.038550	-0.220388	0.111313	-0.026869	-0.276301	0.133218	-0.016685	-0.253626	0.125390	-0.037054	-0.298976	0.141045	-0.031378	-0.200377	0.035902	-0.055907	-0.183560	0.056128	0.006437	-0.187093	0.038453	-0.020454	-0.159667	0.039901	-0.032210	-0.119684	0.035573	-0.044258	-0.123488	0.037339	-0.027827	-0.050882	-0.014839	-0.029280	-0.083458	-0.019967	-0.156547	0.025215	-0.151780	-0.212325	0.026498	-0.147563	-0.038550	-0.220388	0.111313	-0.038550	-0.220388	0.111313	0.006437	-0.187093	0.038453	0.006437	-0.187093	0.038453	0.006437	-0.187093	0.038453	-0.020454	-0.159667	0.039901	-0.020454	-0.159667	0.039901	-0.020454	-0.159667	0.039901
2647	211.680000	-0.037935	-0.231169	0.113223	-0.025423	-0.285860	0.134402	-0.015140	-0.263418	0.127430	-0.035706	-0.308303	0.141374	-0.030801	-0.208325	0.037199	-0.054756	-0.192033	0.056439	0.007168	-0.195371	0.038717	-0.018827	-0.169303	0.039674	-0.030622	-0.130952	0.038145	-0.042480	-0.133310	0.038489	-0.028770	-0.060397	-0.013325	-0.029731	-0.090626	-0.020751	-0.157304	0.018034	-0.153667	-0.212116	0.017537	-0.148602	-0.037935	-0.231169	0.113223	-0.037935	-0.231169	0.113223	0.007168	-0.195371	0.038717	0.007168	-0.195371	0.038717	0.007168	-0.195371	0.038717	-0.018827	-0.169303	0.039674	-0.018827	-0.169303	0.039674	-0.018827	-0.169303	0.039674
2648	211.760000	-0.037648	-0.233998	0.113907	-0.024557	-0.287823	0.135160	-0.014307	-0.266324	0.128749	-0.034806	-0.309321	0.141571	-0.030158	-0.209730	0.038214	-0.053951	-0.191714	0.056567	0.007934	-0.198771	0.039486	-0.017387	-0.170377	0.039446	-0.029881	-0.133507	0.040308	-0.041505	-0.134573	0.039695	-0.029635	-0.060263	-0.013157	-0.030192	-0.088895	-0.022222	-0.157727	0.016359	-0.155630	-0.211775	0.020813	-0.152673	-0.037648	-0.233998	0.113907	-0.037648	-0.233998	0.113907	0.007934	-0.198771	0.039486	0.007934	-0.198771	0.039486	0.007934	-0.198771	0.039486	-0.017387	-0.170377	0.039446	-0.017387	-0.170377	0.039446	-0.017387	-0.170377	0.039446
